# xmcd
#
# Track frame offsets: 
#        150
#        13205
#        25080
#        36852
#        49740
#        63112
#        73137
#        83640
#        95172
#        105912
#        119232
#        129792
#        138672
#        149630
#        164122
#        173460
#        185465
#        199792
#        214595
#        227900
#
# Disc length: 3221 seconds
#
# Revision: 2
# Processed by: cddbd v1.5.2PL0 Copyright (c) Steve Scherf et al.
# Submitted via: ExactAudioCopyFreeDBPlugin 1.0
#
DISCID=240c9314
DTITLE=Various Artist - The Excello Story, 1952-1975
DYEAR=1999
DGENRE=Rhythm and Blues
TTITLE0=The Marigolds - Rolling Stone
TTITLE1=Louis Brooks and His Hi-Toppers with Earl Gaines - It's Love Bab
TTITLE1=y (24 Hours a Day)
TTITLE2=Good Rockin' Sam with Kid King's Combo - Now Listen Baby
TTITLE3=The Solotones - Pork and Beans
TTITLE4=Lightnin' Slim - Lightnin's Blues
TTITLE5=Jerry McCain and His Upstarts - Courtin' in a Cadillac
TTITLE6=Rudy Green - My Mumblin' Baby
TTITLE7=Larry Birdsong with Louis Brooks and His Hi-Toppers - Pleadin' f
TTITLE7=or Love
TTITLE8=Guitar Gable and The Musical Kings - Congo Mambo
TTITLE9=Guitar Gable and King Karl - Irene
TTITLE10=Jack Toombs - Kiss-A-Me Quick
TTITLE11=Johnny Jano - Havin' a Whole Lot of Fun
TTITLE12=Al Ferrier - Hey! Baby
TTITLE13=Little Al - No Jive
TTITLE14=Little Al - Little Lean Woman
TTITLE15=Clarence Samuels - Chicken Hearted Woman
TTITLE16=Lonesome Sundown - My Home is a Prison
TTITLE17=Lightnin' Slim - Mean Ol' Lonesome Train
TTITLE18=Lazy Lester - They Call Me Lazy
TTITLE19=Slim Harpo - I'm a King Bee
EXTD=
EXTT0=
EXTT1=
EXTT2=
EXTT3=
EXTT4=
EXTT5=
EXTT6=
EXTT7=
EXTT8=
EXTT9=
EXTT10=
EXTT11=
EXTT12=
EXTT13=
EXTT14=
EXTT15=
EXTT16=
EXTT17=
EXTT18=
EXTT19=
PLAYORDER=
